Coordinates
version=1
nRows=13
nColumns=36
inDegrees=yes

Units are S.I. units (second, meters, Newtons, ...)
If the header above contains a line with 'inDegrees', this indicates whether rotational values are in degrees (yes) or radians (no).

endheader
time	pelvis_tilt	pelvis_list	pelvis_rotation	pelvis_tx	pelvis_ty	pelvis_tz	hip_flexion_r	hip_adduction_r	hip_rotation_r	knee_angle_r	knee_angle_r_beta	ankle_angle_r	subtalar_angle_r	mtp_angle_r	hip_flexion_l	hip_adduction_l	hip_rotation_l	knee_angle_l	knee_angle_l_beta	ankle_angle_l	subtalar_angle_l	mtp_angle_l	lumbar_extension	lumbar_bending	lumbar_rotation	arm_flex_r	arm_add_r	arm_rot_r	elbow_flex_r	pro_sup_r	arm_flex_l	arm_add_l	arm_rot_l	elbow_flex_l	pro_sup_l
      0.65000000	     -1.84405192	      2.26938804	     -2.15741194	      0.69376100	      0.91558239	     -0.19660151	     -4.77889653	      0.04729604	     -0.15572701	     40.41873085	      0.70543993	      3.27496412	     -9.28766418	     -6.99085325	     27.21433795	      5.67512696	     -2.01228985	     17.29203245	      0.30180290	     -7.77729752	    -10.76346150	     -6.99085325	     -6.83807057	     -6.67406278	      2.24991483	      9.60984269	    -15.46335527	      5.98623564	     79.60500530	    107.21913067	    -17.91301146	     -5.51546682	    -15.92999145	     28.08007358	     97.31127258
      0.66000000	     -1.93831195	      2.77591063	     -1.77915000	      0.70730854	      0.91679398	     -0.19808068	     -2.87669164	     -0.80229968	     -0.54214427	     44.43714768	      0.77557454	     -0.41363631	    -10.26973324	     -7.00300963	     26.85640767	      6.52777732	     -1.43105787	     18.18451675	      0.31737969	     -7.30684102	    -11.67911493	     -7.00300963	     -6.70387026	     -7.21134836	      1.58234764	      8.33762841	    -14.92013291	      5.88660894	     78.56445637	    107.30972157	    -17.28971256	     -5.39840372	    -16.67773517	     28.79575533	     97.14457134
      0.67000000	     -1.72359397	      3.37141390	     -1.44761691	      0.72058749	      0.91855566	     -0.19958084	     -1.20579335	     -1.85605283	     -0.95161295	     48.42594989	      0.84519227	     -3.54780359	    -10.16426579	     -7.00785874	     26.04402304	      7.43573077	     -1.17365172	     18.85478781	      0.32907813	     -6.37944548	    -12.14719986	     -7.00785874	     -7.02283448	     -7.82262529	      0.79759089	      7.17846583	    -14.40928922	      5.99027010	     77.67805029	    107.32271440	    -16.51498738	     -5.36353499	    -16.84570642	     29.31636287	     97.12480574
      0.68000000	     -1.90270494	      3.75478480	     -1.26058246	      0.73338909	      0.91993861	     -0.20066456	      1.08986625	     -2.50811147	     -0.96669145	     52.38573632	      0.91430358	     -7.77863574	    -12.42777111	     -7.03453314	     25.56283456	      8.01145410	     -1.00675336	     19.28800806	      0.33663925	     -5.61472591	    -12.37763061	     -7.03453314	     -6.85712980	     -8.23642767	      0.11335300	      6.15771809	    -13.90912324	      6.28619607	     76.17802647	    107.57572588	    -15.96121247	     -5.13219152	    -17.89667143	     30.55769264	     96.97422453
      0.69000000	     -1.96156742	      4.27337438	     -1.20027415	      0.74592060	      0.92156144	     -0.20164098	      3.34616911	     -3.39285402	     -0.89769643	     56.29035537	      0.98245204	    -10.09089437	    -12.81725972	     -7.04086314	     24.78556300	      8.68638532	     -1.02012813	     19.36921439	      0.33805656	     -4.71925733	    -12.43199152	     -7.04086314	     -6.87464362	     -8.78816652	     -0.35772133	      5.03969757	    -13.44388486	      6.45117401	     74.89404512	    107.56222621	    -15.15883315	     -5.14306928	    -17.86612978	     31.38124197	     97.04485703
      0.70000000	     -2.05883969	      4.68565106	     -1.25771566	      0.75811298	      0.92323237	     -0.20233059	      5.67282450	     -4.04543634	     -0.57405777	     59.91729189	      1.04575402	    -11.93544832	    -13.93390595	     -7.04616327	     23.96803864	      9.18475796	     -1.15678137	     19.25614534	      0.33608314	     -3.87126011	    -12.34258952	     -7.04616327	     -6.86515638	     -9.18934165	     -0.71485487	      4.00198663	    -13.01937308	      6.67750579	     73.45691744	    107.53153423	    -14.29034636	     -5.16510327	    -17.80602184	     32.33371720	     97.14178197
      0.71000000	     -2.26103149	      4.96261769	     -1.39980654	      0.77014382	      0.92492696	     -0.20274699	      8.10837648	     -4.44739865	     -0.16309080	     63.18234863	      1.10274001	    -13.35317429	    -15.96350827	     -7.05273019	     23.18416670	      9.46345472	     -1.48412978	     18.95122011	      0.33076119	     -3.07376621	    -11.97613466	     -7.05273019	     -6.70397419	     -9.46830532	     -1.01433750	      3.02398537	    -12.63275238	      6.99278929	     71.73894570	    107.49907952	    -13.51882440	     -5.16904873	    -17.71038062	     33.46313568	     97.27355930
      0.72000000	     -2.37740278	      4.96882223	     -1.52853153	      0.78190088	      0.92691924	     -0.20294998	     10.33666984	     -4.40107968	      0.26046684	     65.86710111	      1.14959778	    -15.19258421	    -19.28784519	     -7.07207769	     22.35717110	      9.40328343	     -2.00285826	     18.78383303	      0.32783973	     -1.97144239	    -10.84783407	     -7.07207769	     -6.69251951	     -9.43877019	     -1.57217170	      2.42754733	    -12.33100205	      7.79298184	     69.72925770	    107.57534775	    -12.85222718	     -5.13350023	    -17.74010196	     34.78693809	     97.46511228
      0.73000000	     -2.49950966	      5.06897313	     -1.71022386	      0.79356572	      0.92903577	     -0.20315246	     12.55138040	     -4.48066589	      0.72006189	     68.25237435	      1.19122865	    -15.17477955	    -21.24133324	     -7.08650316	     21.36971971	      9.48436523	     -2.32331626	     18.25294239	      0.31857394	     -1.15482566	    -10.14195652	     -7.08650316	     -6.65738180	     -9.49952107	     -1.90312585	      1.67734124	    -12.04643984	      8.32347501	     67.75092483	    107.57194987	    -12.01730788	     -5.21170676	    -17.37360474	     35.90644763	     97.66401251
      0.74000000	     -2.54309872	      5.03521256	     -1.86458274	      0.80512407	      0.93142955	     -0.20340388	     14.56151719	     -4.37931763	      1.16500674	     70.10186326	      1.22350833	    -14.36650905	    -22.78460571	     -7.09066151	     20.20385908	      9.48589460	     -2.37143596	     17.54598336	      0.30623518	     -0.52082316	     -9.84688400	     -7.09066151	     -6.73349973	     -9.37810070	     -2.05675523	      0.77416115	    -11.86932894	      8.65676557	     65.94027301	    107.50567536	    -10.91666831	     -5.29127435	    -16.99189817	     36.86686139	     97.80602334
      0.75000000	     -2.68965187	      4.96497080	     -1.90986029	      0.81658751	      0.93376751	     -0.20369458	     16.60753643	     -4.23676961	      1.47633223	     71.50444963	      1.24798808	    -13.82000607	    -24.31340818	     -7.09743736	     19.17494617	      9.45171408	     -2.47360376	     16.85996967	      0.29426198	      0.08308654	     -9.19412286	     -7.09743736	     -6.67849249	     -9.22556460	     -2.55102445	      0.14329279	    -11.59794211	      9.19109167	     63.68441787	    107.46038549	    -10.10214616	     -5.49659418	    -16.25560839	     38.01551662	     98.00695014
      0.76000000	     -2.73483403	      4.67157660	     -1.89697861	      0.82795279	      0.93636006	     -0.20406796	     18.37543328	     -3.81516646	      1.74659094	     72.32833275	      1.26236755	    -13.09203310	    -25.33032645	     -7.10075914	     18.02255911	      9.23001761	     -2.27283418	     16.18660861	      0.28250961	      0.55015056	     -8.78729027	     -7.10075914	     -6.78504695	     -8.79485048	     -2.80870209	     -0.69855104	    -11.54069173	      9.60425196	     61.71884330	    107.40639226	     -8.98209998	     -5.58030866	    -15.75617112	     39.07059131	     98.15830348
      0.77000000	     -2.77710921	      4.39795024	     -1.71010845	      0.83938090	      0.93894791	     -0.20464968	     20.01660487	     -3.49596501	      1.81577491	     72.70945614	      1.26901941	    -12.63657712	    -26.11068180	     -7.13104569	     16.88465135	      9.02860084	     -2.23121722	     15.54941587	      0.27138850	      1.50677365	     -7.50618226	     -7.13104569	     -6.85350642	     -8.37531087	     -3.94845576	     -0.73192222	    -11.47733176	     11.09713274	     58.76987831	    107.69712180	     -8.45224585	     -5.84049199	    -15.07557561	     40.44160974	     98.26127064
